/* XPM */
static char *_8b8b6d628aa4f23dc7ba093d96859d9vDtSvAxus8zD3D51[] = {
/* columns rows colors chars-per-pixel */
"80 80 2 1 ",
"  c black",
". c white",
/* pixels */
"                                  ............                                  ",
"                                  ............                                  ",
"                                ................                                ",
"                                ................                                ",
"                            ........................                            ",
"                            ........................                            ",
"                        ................................                        ",
"                        ................................                        ",
"                      ....................................                      ",
"                      ....................................                      ",
"                    ........    ..    ....    ..    ........                    ",
"                    ........    ..    ....    ..    ........                    ",
"                    ......      ................      ......                    ",
"                    ......      ................      ......                    ",
"                      ......    ................    ......                      ",
"                      ......    ................    ......                      ",
"                        ....    ......    ......    ....                        ",
"                        ....    ......    ......    ....                        ",
"                                  ............                                  ",
"                                  ............                                  ",
"                                    ........                                    ",
"                                    ........                                    ",
"                                      ....                                      ",
"                                      ....                                      ",
"                                    ........                                    ",
"                                    ........                                    ",
"                      ....................................                      ",
"                      ....................................                      ",
"                    ........................................                    ",
"                    ........................................                    ",
"                    ......  ........................  ......                    ",
"                    ......  ........................  ......                    ",
"                    ......  ........................  ......                    ",
"                    ......  ........................  ......                    ",
"                    ......  ........................  ......                    ",
"                    ......  ........................  ......                    ",
"                    ......  ........................  ......                    ",
"                    ......  ........................  ......                    ",
"                    ......  ........................  ......                    ",
"                    ......  ........................  ......                    ",
"                    ......  ........................  ......                    ",
"                    ......  ........................  ......                    ",
"                    ......  ........................  ......                    ",
"                    ......  ........................  ......                    ",
"                    ......  ........................  ......                    ",
"                    ......  ........................  ......                    ",
"                    ......  ........................  ......                    ",
"                    ......  ........................  ......                    ",
"                    ......  ........................  ......                    ",
"                    ......  ........................  ......                    ",
"                    ....    ........................    ....                    ",
"                    ....    ........................    ....                    ",
"                    ....    ........................    ....                    ",
"                    ....    ........................    ....                    ",
"                              ....................                              ",
"                              ....................                              ",
"                              ......        ......                              ",
"                              ......        ......                              ",
"                              ......        ......                              ",
"                              ......        ......                              ",
"                              ......        ......                              ",
"                              ......        ......                              ",
"                              ......        ......                              ",
"                              ......        ......                              ",
"                              ......        ......                              ",
"                              ......        ......                              ",
"                              ......        ......                              ",
"                              ......        ......                              ",
"                              ......        ......                              ",
"                              ......        ......                              ",
"                              ......        ......                              ",
"                              ......        ......                              ",
"                              ......        ......                              ",
"                              ......        ......                              ",
"                              ......        ......                              ",
"                              ......        ......                              ",
"                              ......        ......                              ",
"                              ......        ......                              ",
"                                ....        ....                                ",
"                                ....        ....                                "
};
